<?xml version="1.0" encoding="utf-8"?>
<!-- Generator: Adobe Illustrator 16.0.0, SVG Export Plug-In . SVG Version: 6.00 Build 0)  -->
<!DOCTYPE svg PUBLIC "-//W3C//DTD SVG 1.1//EN" "http://www.w3.org/Graphics/SVG/1.1/DTD/svg11.dtd">
<svg version="1.1" xmlns="http://www.w3.org/2000/svg" xmlns:xlink="http://www.w3.org/1999/xlink" x="0px" y="0px"
	 width="52px" height="52px" viewBox="0 0 737.01 793.7" enable-background="new 0 0 737.01 793.7" xml:space="preserve">
<g id="Calque_1">
</g>
<g id="Calque_2">
	<path fill="#FFFFFF" d="M379.242,90.348c-167.757,0-303.763,136.006-303.763,303.756c0,167.765,136.005,303.763,303.763,303.763
		c167.758,0,303.755-135.998,303.755-303.763C682.997,226.354,547,90.348,379.242,90.348 M494.319,287.249
		c-35.763-35.761-85.019-52.066-135.209-44.443c-70.864,10.737-126.037,70.049-132.001,141.473
		c-7.745,92.896,65.539,170.204,156.218,170.204c28.848,0,55.9-7.793,79.127-21.42c0,0,0.688,30.868-2.116,37.676
		c-23.549,10.514-49.633,16.364-77.011,16.364c-108.196,0-195.93-91.379-188.988-201.599
		c5.965-94.648,83.555-171.188,178.245-176.324c54.514-2.951,106.048,16.622,144.384,54.938L494.319,287.249z M318.906,462.292
		c15.374,15.975,39.752,19.628,62.035,20.059l-0.621,30.627c-30.249-0.938-62.216-7.522-83.407-29.522
		c-21.143-21.991-32.453-50.771-31.887-80.697c0.607-30.611,12.988-58.953,34.967-80.103c21.642-20.826,50.408-32.103,81.042-31.523
		l-0.942,30.269c-22.276-0.424-42.942,7.9-58.916,23.274c-16.31,15.683-25.436,36.038-25.867,58.32
		C294.885,425.257,303.525,446.318,318.906,462.292"/>
	<polygon fill="#249639" points="402.995,407.861 510.415,407.861 510.415,537.281 542.105,514.399 542.105,382.33 402.995,382.33
		"/>
	<path fill="#249639" d="M704.836,94.184c0,12.8-10.38,23.179-23.172,23.179c-12.808,0-23.172-10.379-23.172-23.179
		c0-12.792,10.364-23.172,23.172-23.172C694.456,71.012,704.836,81.392,704.836,94.184"/>
	<path fill="#FFFFFF" d="M109.799,698.163c0,17.795-14.438,32.245-32.244,32.245s-32.23-14.45-32.23-32.245
		c0-17.807,14.423-32.257,32.23-32.257S109.799,680.356,109.799,698.163"/>
</g>
</svg>
